<svg xmlns="http://www.w3.org/2000/svg" xmlns:xlink="http://www.w3.org/1999/xlink" version="1.1" x="0px" y="0px" width="100%" height="100%" viewBox="0 0 800 640" enable-background="new 0 0 800 640" xml:space="preserve" preserveAspectRatio="xMidYMid meet" data-cs-capture="" class="explodedView-image" style="font-size: 100%;">
<g id="deconstructBack">
	<g>
	</g>
	<g>
		<g data-translate="243.89999999999998" data-delay="0.08" data-duration="1" data-svg-origin="149.2511444091797 162.6999969482422" transform="matrix(1,0,0,1,0,0)" style="transform-origin: 0px 0px;">
			<g>
				<path fill="#FFFFFF" stroke="#000000" stroke-miterlimit="10" d="M149.5,168.9c0,0-1.9-3,4.8-4.8c7.7-2,5.8,0.6,5.8,0.6l1.1,6.5      l-0.2,0c-0.7-0.1-1.4-0.1-2-0.2C154,170.7,149.5,168.9,149.5,168.9z"></path>
				<path fill="none" stroke="#000000" stroke-width="0.3" stroke-miterlimit="10" stroke-dasharray="1.8983,1.4237" d="      M150.1,169.8c0,0-2.6-2.4,4.3-4.3c6.9-1.9,5.2,0.6,5.2,0.6"></path>
				<path fill="none" stroke="#000000" stroke-width="0.3" stroke-miterlimit="10" stroke-dasharray="1.8983,1.4237" d="      M151.4,169.6c0.1-0.7,0.9-1.6,3.9-2.4c2.1-0.6,4.1-0.6,4.7-0.5"></path>
				<polyline fill="none" stroke="#000000" stroke-width="0.3" stroke-miterlimit="10" stroke-dasharray="1.8983,1.4237" points="      156.5,163.7 158.5,169 159.1,171.2     "></polyline>
				<g>
					
						<line fill="none" stroke="#000000" stroke-width="0.629" stroke-linecap="round" stroke-linejoin="round" stroke-miterlimit="10" x1="160.1" y1="162.8" x2="160.3" y2="164.1"></line>
					
						<line fill="none" stroke="#000000" stroke-width="0.629" stroke-linecap="round" stroke-linejoin="round" stroke-miterlimit="10" x1="159.2" y1="162.7" x2="159.4" y2="164.1"></line>
					
						<line fill="none" stroke="#000000" stroke-width="0.629" stroke-linecap="round" stroke-linejoin="round" stroke-miterlimit="10" x1="158.3" y1="162.7" x2="158.5" y2="164.2"></line>
					
						<line fill="none" stroke="#000000" stroke-width="0.629" stroke-linecap="round" stroke-linejoin="round" stroke-miterlimit="10" x1="157.4" y1="162.8" x2="157.6" y2="164.2"></line>
					
						<line fill="none" stroke="#000000" stroke-width="0.629" stroke-linecap="round" stroke-linejoin="round" stroke-miterlimit="10" x1="156.5" y1="163" x2="156.7" y2="164.2"></line>
				</g>
			</g>
			<line id="ref_43_" fill="none" x1="160" y1="163.2" x2="403.9" y2="163.2"></line>
		</g>
	</g>
	<g>
	</g>
	<g>
	</g>
	<g>
	</g>
	<g>
	</g>
	<g>
	</g>
	<g>
	</g>
	<g>
	</g>
</g>
<g id="denimBack">
	<g id="MEN_x5F_3301_1_">
		<path fill="#FFFFFF" stroke="#000000" stroke-miterlimit="10" d="M604.2,389.7c0.1-2.3-0.6-4.2-0.9-5.9c3.1-0.8,8.5,0.9,7.6-8.3    c-0.5-5.7-8-4.1-4.9-13c3.1-8.9,7.7-11.5,3.4-27.1c-4.3-15.6-3.3-8.7-2.4-20c1-11.3,2.1-43.8-3.1-64.1    c-5.2-20.2-26.9-99.2-26.4-100.9c0.5-1.7,2.1-3,0.8-5.8c-1.3-2.8-3-3.3-3.2-9c-0.2-5.7-1.8-10.2-2.7-15.4c-0.9-5.2-3-8.2-2.5-8.7    c0.5-0.5,0.4-1-0.3-2.9c-0.6-1.9-3.8-8.9-4.5-11.1c-0.6-2.3-2-11.3-2-11.3s-4.1-8.9-31-8.7c-26.9,0.2-60.5,6.9-86.2,9.4    c-25.7,2.5-48.8,5.1-49.1,7.4c-0.3,2.3-3.1,31.9-3.4,36c-0.4,4.1-0.1,16,0.1,16.8c0.2,0.8-0.1,2.3-0.7,7.5    c-0.6,5.1-0.1,13.7-0.1,13.7s-0.6-0.3-0.5,0.8c0.1,1,1.9,47.5,8.4,71.7c4,14.8,3.9,24.9,3.9,24.9s0,7.9,0.3,16.8    c0.3,8.9,0.8,18.8,1.7,22.7c3.1,7.4,3.1,15,1.7,23.1c-0.2,1.7,0.9,3.6,2,5.4c1,1.8,1.8,3.6,0.9,5.1c-1.3,1.3-2.5,2.6-3.6,3.9    c-1.1,1.4-2.1,2.7-3.1,4.2c-3.1,3.8-4.2,8.3-4.9,12.9c-0.2,1.6-0.4,3.1-0.6,4.7c-0.1,6-1.5,11.7-4.4,16.9    c-5.7,9.5-10.9,19-14.9,29.6c-0.4,1-0.9,2-1.3,2.9c-0.9,1.9-1.8,3.9-2.7,5.8c-2.4,4.9-5.3,10.1-5.3,15.8c0,2.8-2.4,5.7-3.9,8.4    c-0.7,1.1-1.3,2.1-1.9,3.2c-3.1,5-5.8,10.1-6.3,16.2c-0.4,1.1-0.8,2.2-1.1,3.4c-0.3,1.1-0.7,2.3-1,3.5c-0.9,2.8-2.4,5.2-4.3,7.8    c-0.5,0.7-1,1.5-1.5,2.2c-0.5,0.7-0.9,1.5-1.3,2.3c-1.2,4.4-2.3,8.9-3.3,13.4l0.2,0.4c12.8,14.2,29,24.7,48.3,25.7l0.6-0.6    c2.1-4.2,4.1-8.6,6.2-12.8c2.1-4.2,4.2-8.4,6.1-12.6c16.9-40.5,36.4-80.3,48.3-122.5c6.1-3.4,8-10.5,10.4-16.2    c2.8-7.1,7.6-11.9,5.9-19.8c0.5-1.9,2-11,3.7-21.2c1.7-10.2,3.6-21.4,4.7-27.4c2.3-12.1,9.7-42.9,9.7-42.9s13.6,35.7,17.4,44.3    c3.8,8.6,1.3,7.5,3,11.4c1.7,3.9,6.1,7.6,8.1,12.1c1.9,4.4,9.2,19,10.3,25.5c1.1,6.5,6.5,14.1,8.2,15.9c1.7,1.8,3.6,9.9,1.2,13.4    c-2.4,3.6,2.4,7,2.8,9.4s-3.2,5.9,0,9.3c3.2,3.4,5.7,5,1,10.1l2.4-3.4c-3.4,7.2-6.3,15.6-7.1,19.3c-0.6,3.8-2,6.6-3.4,9.9    c-2.5,7.8-4,15.9-5.3,23.9c-1.4,8-2.6,16.1-4.6,23.9c-10.5,25.3-15.2,50.9-21.1,77.2c-1.7,7.5,30.6,23.1,54.1,14.6    c1.1-0.4,5-8.6,6.9-15.2c5.7-19.5,9-38.9,16.1-57.9c2.4-5.7,6.2-10.9,8.1-17.1c5.7-16.6,8.5-32.7,13.8-48.9    c1.9-6.2,0.9-12.8,1.6-19.2C603.6,398.5,604.1,392.7,604.2,389.7z"></path>
		<g>
			<g>
				<path fill="none" stroke="#000000" stroke-width="0.3709" stroke-miterlimit="10" stroke-dasharray="1.9781,1.4836" d="      M346.6,492.2c5-2.2,9-2.5,14.2-2.1c5.2,0.4,10.3,1.9,15.1,4.4c4.8,2.4,9.1,5.8,12.8,9.7c3.4,3.6,6.1,7.7,8.1,12.2"></path>
			</g>
			<g>
				<path fill="none" stroke="#000000" stroke-miterlimit="10" d="M346.1,495.5c4.6-1.9,7.6-1.6,12.5-1.2c5.2,0.4,10.3,1.9,15.1,4.4      c4.8,2.4,9.1,5.8,12.8,9.7c3.4,3.6,6,8.5,7.9,13"></path>
			</g>
		</g>
		<g>
			<path fill="none" stroke="#000000" stroke-width="0.5" stroke-miterlimit="10" d="M353.4,493.9c10,10.2,23.6,17.9,37.8,21.3"></path>
		</g>
		<g>
			
				<path fill="none" stroke="#000000" stroke-width="0.8504" stroke-linecap="round" stroke-linejoin="round" stroke-miterlimit="10" stroke-dasharray="1.9106,1.433" d="     M350.7,494.2c11.7,11,25.9,20,41.8,23.8"></path>
		</g>
		<path fill="none" stroke="#000000" stroke-width="0.5" stroke-miterlimit="10" d="M554.3,560c-0.3-3.5,0.3-7.6,1.7-10.9    c10-19.5,17.1-38.8,21.4-60.2c1.2-4.7,3.3-9,5.5-13.2c2.2-4.2,4.5-8.4,5.9-12.9c4.7-14.7,4.3-30.4,9.8-44.8c0,0,4.7-12.3,4.9-19.5    "></path>
		<path fill="none" stroke="#000000" stroke-width="0.3582" stroke-miterlimit="10" stroke-dasharray="1.9106,1.433" d="    M507.9,554.6"></path>
		<path fill="none" stroke="#000000" stroke-linejoin="round" stroke-miterlimit="10" d="M502.8,549.2"></path>
		<path fill="none" stroke="#000000" stroke-linejoin="round" stroke-miterlimit="10" d="M557.9,562.2c-16.6-9.1-34.6-28.6-55-15.3"></path>
		<path fill="none" stroke="#000000" stroke-width="0.3582" stroke-miterlimit="10" stroke-dasharray="1.9106,1.433" d="    M558.3,557.4c-16.2-9-34.4-25.7-54-15.8"></path>
		
			<path fill="none" stroke="#000000" stroke-width="0.8504" stroke-linecap="round" stroke-linejoin="round" stroke-miterlimit="10" stroke-dasharray="1.9106,1.433" d="    M504.4,546.3c12.3,15.8,37.7,15.3,48.3,13.7"></path>
		<path fill="none" stroke="#000000" stroke-width="0.4457" stroke-miterlimit="10" d="M506,545.6c9.7,12.4,33,13.4,45.4,12.6"></path>
		<path fill="none" stroke="#000000" stroke-width="0.5" stroke-miterlimit="10" d="M506.1,544.9c0,0-1.3,5.1-0.8,8"></path>
		<path fill="none" stroke="#000000" stroke-width="0.5" stroke-miterlimit="10" d="M567.5,108.6c0.6,1.9,0.8,2.4,0.3,2.9    c-0.5,0.5,1.6,3.5,2.5,8.7c0.9,5.2,2.5,9.7,2.7,15.4c0.2,5.7,0.8,6.7,2.1,9.5c1.3,2.8,0.8,3.6,0.2,5.3    c-0.5,1.7,21.1,80.6,26.4,100.9c5.2,20.2,4.1,52.7,3.1,64.1c-1,11.3-2,4.4,2.4,20c0,0,5.5,10.3,0.6,22.8"></path>
		<path fill="none" stroke="#000000" stroke-width="0.3582" stroke-miterlimit="10" stroke-dasharray="1.9106,1.433" d="    M591.8,221.5c-8-29.7-18.7-70-18.3-71.1c0.5-1.7,1.1-2.6-0.2-5.3c-1.3-2.8-1.9-3.8-2.1-9.5c-0.2-5.7-1.8-10.2-2.7-15.4    c-0.9-5.2-3-8.2-2.5-8.7c0.5-0.5,0.4-1-0.3-2.9"></path>
		<path fill="none" stroke="#000000" stroke-width="0.3582" stroke-miterlimit="10" stroke-dasharray="1.9106,1.433" d="M444.2,125    c-1.5,7.4,0.8,26.4,1.4,29c0.6,2.6,0.6,6.2,1.6,14.3c1,8.1,3.6,21.9,8.5,32.8c4.9,10.9,17.6,21.9,25.1,28.3"></path>
		<path fill="none" stroke="#000000" stroke-width="0.3582" stroke-miterlimit="10" stroke-dasharray="1.9106,1.433" d="    M440.9,125.5c-1.5,7.4,1.1,25.8,1.7,28.4c0.6,2.6,0.6,6.2,1.6,14.3c1,8.1,3.6,21.9,8.5,32.8c4.9,10.9,11.4,16.6,20.2,22.7"></path>
		<path fill="none" stroke="#000000" stroke-miterlimit="10" d="M570.1,111.6c0,0,0.7-7.9-40.7-6.3c-41.4,1.6-57.2,5.4-80.1,7.4    c-22.9,2.1-54.7,6-54.7,6"></path>
		<path fill="none" stroke="#000000" stroke-width="0.3582" stroke-miterlimit="10" stroke-dasharray="1.9106,1.433" d="    M570.1,109.2c0,0,0.7-7.9-40.7-6.3s-57.2,5.4-80.1,7.4c-22.9,2.1-54.7,6-54.7,6"></path>
		<path fill="none" stroke="#000000" stroke-width="0.3582" stroke-miterlimit="10" stroke-dasharray="1.9106,1.433" d="M562.9,87.4    c0,0,0.7-8.4-38.7-6.5c-39.4,1.8-54.4,5.9-76.2,8.1c-21.8,2.2-52,6.5-52,6.5"></path>
		<path fill="none" stroke="#000000" stroke-width="0.5" stroke-miterlimit="10" d="M394.2,149.2c0,0,18.1,4.5,31,5.9    c12.8,1.3,36.3-3.6,54.6-5.6c18.3-2,62.1-8.9,78-11.3c8-1.2,12.4-0.7,14.9,0"></path>
		<path fill="none" stroke="#000000" stroke-width="0.3603" stroke-miterlimit="10" stroke-dasharray="1.9215,1.4411" d="    M393.3,155.8c0,0,22.6,3.4,35.6,4.8c13,1.3,32.4-2.5,50.9-4.5c18.5-2,62.8-8.9,78.9-11.2c8.1-1.2,13.9-0.5,16.4,0.3"></path>
		<path fill="none" stroke="#000000" stroke-width="0.3582" stroke-miterlimit="10" stroke-dasharray="1.9106,1.433" d="M394.1,151    c0,0,18.1,4.5,31,5.9c12.8,1.3,36.3-3.6,54.6-5.6c18.3-2,62.1-8.9,78-11.3c8-1.2,12.4-0.7,14.9,0"></path>
		<path fill="none" stroke="#000000" stroke-width="0.3" stroke-miterlimit="10" d="M392.9,168.3c0,0,4.5,1.7,9.6,2    c5.1,0.4,18.2,1.5,18.7,2.2c0.5,0.8-3.7,25.7-2.6,31.4c1.1,5.7,6.8,24.1,6.7,26.7c-0.1,2.6,0.3,7.5,0.3,7.5s-17.6,14.3-19.1,13.8    c-1.5-0.6-4.9-6.8-4.9-6.8"></path>
		<path fill="none" stroke="#000000" stroke-width="0.5" stroke-miterlimit="10" d="M390.2,513.1c1.7-4.3,3.5-8.4,5.4-12.6    c23.2-41,30.3-90.8,59.8-127.8"></path>
		<path fill="none" stroke="#000000" stroke-width="0.3582" stroke-miterlimit="10" stroke-dasharray="1.9106,1.433" d="    M453.8,376.5c-22.6,35.6-33.1,76.9-50.1,115.3c-1.7,4-3.4,8.1-5.4,12c-2,4-4.1,7.9-6.5,11.7"></path>
		<path fill="none" stroke="#000000" stroke-width="0.2388" stroke-miterlimit="10" d="M602.2,348c0,0-9.2,3.4-19.9,6.8    c-10.7,3.4-14.7,0.7-24.3-2.1c-9.6-2.8-24.8-2.1-9.3,6.5c15.5,8.6,10.4,8.5,1.8,8.8c-8.6,0.3-8.7,4.4-8.7,4.4"></path>
		<path fill="none" stroke="#000000" stroke-width="0.2388" stroke-miterlimit="10" d="M552.6,383c0,0,36.7-6.9,31.4,1.8    c-5.3,8.6-6.3,7.6-16.5,8.9c-10.2,1.3-11.8,5.4-11.8,5.4"></path>
		<path fill="none" stroke="#000000" stroke-width="0.2388" stroke-miterlimit="10" d="M410.9,349.1c0.8,0,7.9,6.5,15.6,7.6    c7.7,1.1,21.2,5.5,13.5,6.9c-7.7,1.5-10.5-1.5-17-3.1c-6.5-1.6-12.8,1.4-2.2,5.7c5.1,2.1,10.2,3.8,16.1,4.3    c5.9,0.4,12.6-0.5,20.9-3.7"></path>
		<path fill="none" stroke="#000000" stroke-width="0.2388" stroke-miterlimit="10" d="M415.8,298c0.3,1-0.2,12.8,5.5,17.8    c2.8,2.5,7.1,8,8.3,10.9c1.2,2.9-0.7,3.3-10.2-4.5"></path>
		<path fill="none" stroke="#000000" stroke-width="0.2388" stroke-miterlimit="10" d="M583.1,371.1c0.8,0,6.6-0.4,11.9,1.3    c5.3,1.7,9.9-2.4-2.7-3.7c-12.6-1.3-15.2-1.1-15.2-1.1"></path>
		<g>
			<path fill="none" stroke="#000000" stroke-width="0.3" stroke-miterlimit="10" d="M568.4,159.1c0,0,6.4,48.4,6.4,57.2     c0,8.8,0.7,22.7,0.7,22.7s-33.3,23-36.8,22.9c-3.5-0.1-38.6-16.1-39.6-18.7c-1-2.8-27.6-71.9-28.1-71.6c-1.8,1,34.6-2.8,49.3-4.8     C535,164.8,568.4,159.1,568.4,159.1z"></path>
		</g>
		<path fill="none" stroke="#000000" stroke-width="0.2388" stroke-miterlimit="10" d="M419.3,207.2c0,0,5.8,4.5,12.1,10.1"></path>
		<path fill="none" stroke="#000000" stroke-width="0.2388" stroke-miterlimit="10" d="M420.8,343.4c11.9,4.6,25.6,5.1,37-3    c1-0.5-0.9-0.9-1.9-1.8"></path>
		<path fill="none" stroke="#000000" stroke-miterlimit="10" d="M446.5,113.2c-0.4,0.7-1,14-1,14.2c-1.2,7.5,0.4,22.7,1.1,25.3    c0.7,2.6,0.9,6.2,2.2,14.2c1.3,8,5,24.4,10.3,35.1c5.3,10.7,13.5,20.8,21.2,26.9c7.7,6.1,10.8,19.5,10.8,19.5"></path>
		<g>
			<path fill="#FFFFFF" stroke="#000000" stroke-width="0.5" stroke-miterlimit="10" d="M447.6,86c-2.7-0.8-6.9-0.7-7.5,0.4     c-1.9,3.2-1.9,15.4-2.4,20.8c-0.6,4.2-0.2,8.4,0,12.6c0,2.4-0.1,4,0.1,4.7c0.2,0.6,0.5,0.9,1,1.1c0.1,0,0.3,0,0.4,0     c0.7-0.1,1.6-0.3,2.5-0.5c0.1,0,0.3,0,0.4-0.1c0.1,0,0.3,0,0.4,0c0.6,0,1.1,0,1.6,0c0.1-0.1,0.1-0.2,0.2-0.3     c0.1-0.1,0.2-0.2,0.2-0.3c0.6-1.2,0.6-2.1,0.6-3.6c0-0.2,0-0.3,0-0.5c0-10.9-1.5-22.2,3-33.1C448.1,86.3,447.6,86,447.6,86z"></path>
			<path fill="none" stroke="#000000" stroke-width="0.3582" stroke-miterlimit="10" stroke-dasharray="1.9106,1.433" d="     M445.9,86.3c-5.5,11.6-1.9,24.2-3.1,36.5"></path>
			<path fill="none" stroke="#000000" stroke-width="0.3582" stroke-miterlimit="10" stroke-dasharray="1.9106,1.433" d="     M442.4,87.2c-5.4,10.1-1.8,21.9-2.5,33.3c0,1.6,0,2.5,0,2.5"></path>
			
				<path fill="none" stroke="#000000" stroke-width="0.3582" stroke-linecap="round" stroke-linejoin="round" stroke-miterlimit="10" d="     M444.1,122c0.2-0.2-0.3,0.3-0.6,0.5c-0.1,0-0.2-0.1-0.3-0.1c-0.4-0.3-0.8-0.9-1.5,0.8c0-0.5,0-0.9,0-1.4     c-0.5,0.5-0.5,0.9-0.5,1.4c0-0.5,0-0.9-0.3-1l-0.3,1.3l-0.3-1.1l-0.3,1.5l-0.4-1.2c0,0-0.4,1.4-0.4,1.3c0-0.1-0.3-1.1-0.3-1.1"></path>
			
				<path fill="none" stroke="#000000" stroke-width="0.3582" stroke-linecap="round" stroke-linejoin="round" stroke-miterlimit="10" d="     M446.5,87.2l-0.4,0.8l0-1.3l-0.7,1l0-1.2l-0.7,0.9l0-1.1l-0.6,1.2l0.1-1.1c0,0-0.7,1.2-0.7,1.1c0-0.1,0-1.2,0-1.2l-0.7,1.1l0-1.1     l-0.8,1.3l0-1.3c0,0-0.8,1.3-0.7,1.2c0-0.1,0.1-1.1,0.1-1.1"></path>
		</g>
		<g>
			<g>
				<path d="M559,163.2c-0.1,0-0.2-0.1-0.2-0.2l0-0.1c0-0.1,0-0.2,0.1-0.2c-0.1,0-0.1-0.1-0.1-0.2l0-0.1c0-0.1,0-0.2,0.1-0.2      c-0.1,0-0.1-0.1-0.1-0.2l0-0.1c0-0.1,0-0.2,0.1-0.2c-0.1,0-0.1-0.1-0.1-0.2l0-0.1c0-0.1,0-0.2,0.1-0.2c-0.1,0-0.1-0.1-0.1-0.2      l0-0.1c0-0.1,0-0.2,0.1-0.2c-0.1,0-0.1-0.1-0.1-0.2l0-0.1c0-0.1,0.1-0.2,0.2-0.2c0-0.1,0.1-0.2,0.2-0.2l0.1,0      c0.1,0,0.2,0,0.2,0.1c0-0.1,0.1-0.1,0.2-0.1l0.1,0c0.1,0,0.2,0,0.2,0.1c0-0.1,0.1-0.1,0.2-0.1l0.1,0c0.1,0,0.2,0,0.2,0.1      c0-0.1,0.1-0.1,0.2-0.1l0.1,0c0.1,0,0.2,0,0.2,0.1c0-0.1,0.1-0.1,0.2-0.1l0.1,0c0.1,0,0.2,0,0.2,0.1c0-0.1,0.1-0.1,0.2-0.1      c0.1,0,0.1,0,0.2,0c0.1,0,0.1,0.1,0.1,0.2c0.1,0,0.2,0,0.3,0.1c0,0,0.1,0.1,0.1,0.1c0,0.1,0,0.2,0,0.3c0.1,0,0.1,0.1,0.1,0.2      l0,0.1c0,0.1,0,0.2-0.1,0.2c0.1,0.1,0.1,0.1,0.1,0.2c0,0,0,0.1,0,0.1c0,0.1-0.1,0.1-0.2,0.1c0,0.1,0,0.2-0.1,0.3      c-0.1,0-0.1,0.1-0.2,0.1c-0.1,0-0.2,0-0.3-0.1c0,0.1-0.1,0.1-0.2,0.1l-0.1,0c-0.1,0-0.2,0-0.2-0.1c0,0.1-0.1,0.1-0.2,0.1l-0.1,0      c-0.1,0-0.2,0-0.2-0.1c0,0.1-0.1,0.1-0.2,0.1l-0.1,0c-0.1,0-0.2,0-0.2-0.1c0,0.1-0.1,0.1-0.2,0.1l-0.1,0c-0.1,0-0.2,0-0.2-0.1      c0,0.1-0.1,0.1-0.2,0.1l-0.1,0c0,0,0,0,0,0c0,0,0,0.1-0.1,0.1c0.1,0,0.1,0.1,0.1,0.2l0,0.1c0,0.1,0,0.2-0.1,0.2      c0.1,0,0.1,0.1,0.1,0.2l0,0.1C559.2,163,559.1,163.1,559,163.2z M559.1,161.6l0.1,0c0.1,0,0.2,0,0.2,0.1c0-0.1,0.1-0.1,0.2-0.1      l0.1,0c0.1,0,0.2,0,0.2,0.1c0-0.1,0.1-0.1,0.2-0.1l0.1,0c0.1,0,0.2,0,0.2,0.1c0-0.1,0.1-0.1,0.2-0.1l0.1,0c0.1,0,0.2,0,0.2,0.1      c0-0.1,0.1-0.1,0.2-0.1l0.1,0c0.1,0,0.1,0,0.2,0.1c0-0.1,0.1-0.1,0.1-0.1c0,0,0,0,0.1,0c0,0,0.1,0,0.1,0c0-0.1,0-0.1,0-0.2      c0,0,0-0.1,0-0.1c0-0.1,0.1-0.1,0.1-0.1c-0.1,0-0.1-0.1-0.1-0.2l0-0.1c0-0.1,0-0.1,0.1-0.2c0,0-0.1-0.1-0.1-0.1c0,0,0,0,0-0.1      c0,0-0.1-0.1-0.1-0.1c-0.1,0-0.1,0-0.2,0c0,0-0.1,0-0.1,0c-0.1,0-0.1,0-0.1-0.1c0,0.1-0.1,0.1-0.2,0.1l-0.1,0      c-0.1,0-0.2,0-0.2-0.1c0,0.1-0.1,0.1-0.2,0.1l-0.1,0c-0.1,0-0.2,0-0.2-0.1c0,0.1-0.1,0.1-0.2,0.1l-0.1,0c-0.1,0-0.2,0-0.2-0.1      c0,0.1-0.1,0.1-0.2,0.1l-0.1,0c-0.1,0-0.2,0-0.2-0.1c0,0.1-0.1,0.1-0.2,0.1l-0.1,0l0,0.1c0,0.1,0,0.2-0.1,0.2      c0.1,0,0.1,0.1,0.1,0.2l0,0.1c0,0.1,0,0.2-0.1,0.2c0.1,0,0.1,0.1,0.1,0.2l0,0.1c0,0.1,0,0.2-0.1,0.2      C559,161.6,559,161.6,559.1,161.6C559,161.6,559,161.6,559.1,161.6z"></path>
			</g>
			<g>
				<path d="M562,162.9c-0.1,0-0.2,0-0.2-0.1l-0.1-0.1c0-0.1,0-0.2,0-0.2c-0.1,0-0.1,0-0.2-0.1l-0.1-0.1c0-0.1,0-0.1,0-0.2      c-0.1,0-0.2,0-0.2-0.1l-0.1-0.1c-0.1-0.1,0-0.2,0.1-0.3c0.1-0.1,0.2,0,0.3,0.1l0.1,0.1c0,0.1,0,0.2,0,0.2c0.1,0,0.1,0,0.2,0.1      l0.1,0.1c0,0.1,0,0.1,0,0.2c0.1,0,0.1,0,0.2,0.1l0.1,0.1C562.2,162.6,562.2,162.7,562,162.9C562.1,162.8,562.1,162.8,562,162.9z      "></path>
			</g>
			<g>
				<path d="M557.4,163.4c-0.1,0-0.2-0.1-0.2-0.2l0,0c0-0.1,0-0.2,0.1-0.2c-0.1,0-0.1-0.1-0.1-0.2l0-0.1c0-0.1,0-0.2,0.1-0.2      c-0.1,0-0.1-0.1-0.1-0.2l0-0.1c0-0.1,0-0.2,0.1-0.2c-0.1,0-0.1-0.1-0.1-0.2l0-0.1c0-0.1,0-0.2,0.1-0.2c-0.1,0-0.1-0.1-0.1-0.2      l0-0.1c0-0.1,0-0.1,0.1-0.2c-0.1,0-0.1-0.1-0.1-0.1c0,0,0,0,0-0.1c0,0,0-0.1,0-0.1c-0.1,0-0.1,0-0.2,0c0,0-0.1,0-0.1,0      c-0.1,0-0.1-0.1-0.1-0.1c0,0.1-0.1,0.1-0.2,0.1l-0.1,0c-0.1,0-0.2,0-0.2-0.1c0,0.1-0.1,0.1-0.2,0.1l-0.1,0c-0.1,0-0.2,0-0.2-0.1      c0,0.1-0.1,0.1-0.2,0.1l-0.1,0c-0.1,0-0.2,0-0.2-0.1c0,0.1-0.1,0.1-0.2,0.1l-0.1,0c-0.1,0-0.2,0-0.2-0.1c0,0.1-0.1,0.1-0.2,0.1      c0,0-0.1,0-0.1,0c-0.1,0-0.1,0-0.2,0c0,0,0,0.1,0,0.1c0,0,0,0,0,0.1c0,0.1-0.1,0.1-0.1,0.1c0,0,0.1,0.1,0.1,0.1l0,0.1      c0,0.1,0,0.2-0.1,0.2c0.1,0,0.1,0.1,0.1,0.2l0,0.1c0,0.1,0,0.2-0.1,0.2c0.1,0,0.1,0.1,0.1,0.2l0,0.1c0,0.1,0,0.2-0.1,0.2      c0.1,0,0.1,0.1,0.1,0.2l0,0.1c0,0.1,0,0.2-0.1,0.2c0.1,0,0.1,0.1,0.1,0.2l0,0.1c0,0.1-0.1,0.2-0.2,0.2c-0.1,0-0.2-0.1-0.2-0.2      l0-0.1c0-0.1,0-0.2,0.1-0.2c-0.1,0-0.1-0.1-0.1-0.2l0-0.1c0-0.1,0-0.2,0.1-0.2c-0.1,0-0.1-0.1-0.1-0.2l0-0.1      c0-0.1,0-0.2,0.1-0.2c-0.1,0-0.1-0.1-0.1-0.2l0-0.1c0-0.1,0-0.2,0.1-0.2c-0.1,0-0.1-0.1-0.1-0.2l0-0.1c0-0.1,0.1-0.2,0.1-0.2      c-0.1-0.1-0.1-0.2-0.1-0.3c0-0.1,0-0.1,0.1-0.1c0.1-0.1,0.2-0.1,0.3-0.1c0-0.1,0-0.2,0.1-0.2c0.1,0,0.1,0,0.2,0      c0.1,0,0.2,0,0.2,0.1c0-0.1,0.1-0.1,0.2-0.1l0.1,0c0.1,0,0.2,0,0.2,0.1c0-0.1,0.1-0.1,0.2-0.1l0.1,0c0.1,0,0.2,0,0.2,0.1      c0-0.1,0.1-0.1,0.2-0.1l0.1,0c0.1,0,0.2,0,0.2,0.1c0-0.1,0.1-0.1,0.2-0.1l0.1,0c0.1,0,0.2,0,0.2,0.1c0-0.1,0.1-0.1,0.2-0.1      c0,0,0.1,0,0.1,0c0.1,0,0.2,0.1,0.1,0.2c0.1,0,0.2,0,0.3,0.1c0,0,0.1,0.1,0.1,0.2c0,0.1,0,0.2-0.1,0.3c0.1,0,0.1,0.1,0.1,0.2      l0,0.1c0,0.1,0,0.2-0.1,0.2c0.1,0,0.1,0.1,0.1,0.2l0,0.1c0,0.1,0,0.2-0.1,0.2c0.1,0,0.1,0.1,0.1,0.2l0,0.1c0,0.1,0,0.2-0.1,0.2      c0.1,0,0.1,0.1,0.1,0.2l0,0.1c0,0.1,0,0.2-0.1,0.2c0.1,0,0.1,0.1,0.1,0.2l0,0C557.6,163.3,557.5,163.4,557.4,163.4z"></path>
			</g>
			<g>
				<path d="M556.9,162.1l-0.1,0c-0.1,0-0.2,0-0.2-0.1c0,0.1-0.1,0.1-0.2,0.1l-0.1,0c-0.1,0-0.2,0-0.2-0.1c0,0.1-0.1,0.1-0.2,0.1      l-0.1,0c-0.1,0-0.2,0-0.2-0.1c0,0.1-0.1,0.1-0.2,0.1l-0.1,0c-0.1,0-0.2,0-0.2-0.1c0,0.1-0.1,0.1-0.2,0.1l-0.1,0      c-0.1,0-0.2,0-0.2-0.1c0,0.1-0.1,0.1-0.2,0.1l-0.1,0c-0.1,0-0.2,0-0.2-0.1c0,0.1-0.1,0.1-0.2,0.1l-0.1,0c-0.1,0-0.2-0.1-0.2-0.2      c0-0.1,0.1-0.2,0.2-0.2l0.1,0c0.1,0,0.2,0,0.2,0.1c0-0.1,0.1-0.1,0.2-0.1l0.1,0c0.1,0,0.2,0,0.2,0.1c0-0.1,0.1-0.1,0.2-0.1      l0.1,0c0.1,0,0.2,0,0.2,0.1c0-0.1,0.1-0.1,0.2-0.1l0.1,0c0.1,0,0.2,0,0.2,0.1c0-0.1,0.1-0.1,0.2-0.1l0.1,0c0.1,0,0.2,0,0.2,0.1      c0-0.1,0.1-0.1,0.2-0.1l0.1,0c0.1,0,0.2,0,0.2,0.1c0-0.1,0.1-0.1,0.2-0.1l0.1,0c0.1,0,0.2,0.1,0.2,0.2      C557.2,162,557.1,162.1,556.9,162.1z"></path>
			</g>
			<g>
				<path d="M552.3,161l-0.1,0c-0.1,0-0.2,0-0.2-0.1c0,0.1-0.1,0.1-0.2,0.1l-0.1,0c-0.1,0-0.2,0-0.2-0.1c0,0.1-0.1,0.1-0.2,0.1      l-0.1,0c-0.1,0-0.2,0-0.2-0.1c0,0.1-0.1,0.1-0.2,0.1l-0.1,0c-0.1,0-0.2,0-0.2-0.1c0,0.1-0.1,0.1-0.2,0.1l-0.1,0      c-0.1,0-0.2,0-0.2-0.1c0,0.1-0.1,0.1-0.2,0.1l-0.1,0c-0.1,0-0.2,0-0.2-0.1c0,0.1-0.1,0.1-0.2,0.1l-0.1,0c-0.1,0-0.2-0.1-0.2-0.2      c0-0.1,0.1-0.2,0.2-0.2l0.1,0c0.1,0,0.2,0,0.2,0.1c0-0.1,0.1-0.1,0.2-0.1l0.1,0c0.1,0,0.2,0,0.2,0.1c0-0.1,0.1-0.1,0.2-0.1      l0.1,0c0.1,0,0.2,0,0.2,0.1c0-0.1,0.1-0.1,0.2-0.1l0.1,0c0.1,0,0.2,0,0.2,0.1c0-0.1,0.1-0.1,0.2-0.1l0.1,0c0.1,0,0.2,0,0.2,0.1      c0-0.1,0.1-0.1,0.2-0.1l0.1,0c0.1,0,0.2,0,0.2,0.1c0-0.1,0.1-0.1,0.2-0.1l0.1,0c0.1,0,0.2,0.1,0.2,0.2      C552.6,160.9,552.5,161,552.3,161z"></path>
			</g>
			<g>
				<path d="M551.1,164c-0.1,0-0.2-0.1-0.2-0.2l0-0.1c0-0.1,0-0.2,0.1-0.2c-0.1,0-0.1-0.1-0.1-0.2l0-0.1c0-0.1,0-0.2,0.1-0.2      c-0.1,0-0.1-0.1-0.1-0.2l0-0.1c0-0.1,0-0.2,0.1-0.2c-0.1,0-0.1-0.1-0.1-0.2l0-0.1c0-0.1,0-0.2,0.1-0.2c-0.1,0-0.1-0.1-0.1-0.2      l0-0.1c0-0.1,0-0.2,0.1-0.2c-0.1,0-0.1-0.1-0.1-0.2l0-0.1c0-0.1,0.1-0.2,0.2-0.2c0.1,0,0.2,0.1,0.2,0.2l0,0.1      c0,0.1,0,0.2-0.1,0.2c0.1,0,0.1,0.1,0.1,0.2l0,0.1c0,0.1,0,0.2-0.1,0.2c0.1,0,0.1,0.1,0.1,0.2l0,0.1c0,0.1,0,0.2-0.1,0.2      c0.1,0,0.1,0.1,0.1,0.2l0,0.1c0,0.1,0,0.2-0.1,0.2c0.1,0,0.1,0.1,0.1,0.2l0,0.1c0,0.1,0,0.2-0.1,0.2c0.1,0,0.1,0.1,0.1,0.2      l0,0.1C551.3,163.9,551.2,164,551.1,164z"></path>
			</g>
			<g>
				<path d="M547.8,164.3L547.8,164.3c-0.2,0-0.2,0-0.3-0.1c0,0.1-0.1,0.1-0.2,0.1l-0.1,0c-0.1,0-0.2,0-0.2-0.1      c0,0.1-0.1,0.1-0.2,0.1l-0.1,0c-0.1,0-0.2,0-0.2-0.1c0,0.1-0.1,0.1-0.2,0.1l-0.1,0c-0.1,0-0.2,0-0.2-0.1c0,0.1-0.1,0.1-0.2,0.1      l-0.1,0c-0.1,0-0.2,0-0.2-0.1c0,0.1-0.1,0.1-0.2,0.1l0,0c-0.1,0-0.2-0.1-0.2-0.2c0-0.1,0.1-0.2,0.2-0.2l0,0c0.1,0,0.2,0,0.2,0.1      c0-0.1,0.1-0.1,0.2-0.1l0.1,0c0.1,0,0.2,0,0.2,0.1c0-0.1,0.1-0.1,0.2-0.1l0.1,0c0.1,0,0.2,0,0.2,0.1c0-0.1,0.1-0.1,0.2-0.1      l0.1,0c0.1,0,0.2,0,0.2,0.1c0-0.1,0.1-0.1,0.2-0.1l0.1,0c0.1,0,0.2,0,0.2,0.1c0-0.1,0.1-0.1,0.2-0.1l0.1,0c0,0,0,0,0,0      c0.1,0,0.1,0,0.2,0c0-0.1,0-0.1,0.1-0.1c0,0,0,0,0.1-0.1c0,0,0.1-0.1,0.1-0.1c0,0-0.1-0.1-0.1-0.2c0,0,0-0.1,0-0.1      c0-0.1,0-0.1,0.1-0.2c-0.1,0-0.1-0.1-0.1-0.1c0,0,0-0.1,0-0.1c0,0,0-0.1,0-0.1c0,0-0.1,0-0.1,0l-0.1,0c-0.1,0-0.2,0-0.2-0.1      c0,0.1-0.1,0.1-0.2,0.1l-0.1,0c-0.1,0-0.2,0-0.2-0.1c0,0.1-0.1,0.1-0.2,0.1l-0.1,0c-0.1,0-0.2,0-0.2-0.1c0,0.1-0.1,0.1-0.2,0.1      l-0.1,0c-0.1,0-0.2,0-0.2-0.1c0,0.1-0.1,0.1-0.2,0.1l-0.1,0c-0.1,0-0.2,0-0.2-0.1c-0.1,0.1-0.2,0.1-0.3,0c0,0-0.1-0.1-0.1-0.1      c-0.1-0.1-0.1-0.2-0.1-0.3c-0.1,0-0.2-0.1-0.2-0.2c0,0,0-0.1,0-0.2c0-0.1,0-0.2,0.1-0.2c-0.1-0.1-0.1-0.2-0.1-0.2      c0-0.1,0-0.1,0.1-0.2c0-0.1,0.1-0.1,0.2-0.1c0-0.1,0-0.2,0.1-0.2c0.1,0,0.1-0.1,0.1-0.1c0,0,0,0,0.1,0l0,0c0.1,0,0.2,0,0.2,0.1      c0-0.1,0.1-0.1,0.2-0.1l0.1,0c0.1,0,0.2,0,0.2,0.1c0-0.1,0.1-0.1,0.2-0.1l0.1,0c0.1,0,0.2,0,0.2,0.1c0-0.1,0.1-0.1,0.2-0.1      l0.1,0c0.1,0,0.2,0,0.2,0.1c0-0.1,0.1-0.1,0.2-0.1l0.1,0c0.1,0,0.2,0,0.2,0.1c0-0.1,0.1-0.1,0.2-0.1l0.1,0      c0.1,0,0.2,0.1,0.2,0.2c0,0.1-0.1,0.2-0.2,0.2l-0.1,0c-0.1,0-0.2,0-0.2-0.1c0,0.1-0.1,0.1-0.2,0.1l-0.1,0c-0.1,0-0.2,0-0.2-0.1      c0,0.1-0.1,0.1-0.2,0.1l-0.1,0c-0.1,0-0.2,0-0.2-0.1c0,0.1-0.1,0.1-0.2,0.1l-0.1,0c-0.1,0-0.2,0-0.2-0.1c0,0.1-0.1,0.1-0.2,0.1      l-0.1,0c-0.1,0-0.2,0-0.2-0.1c0,0.1-0.1,0.1-0.2,0.1c0,0,0,0,0,0c0,0-0.1,0-0.2,0c0,0.1,0,0.1,0,0.2c0,0,0,0.1,0,0.1      c0,0.1-0.1,0.1-0.1,0.1c0.1,0,0.1,0.1,0.1,0.1c0,0,0,0.1,0,0.1c0,0.1,0,0.1,0,0.2c0.1,0,0.1,0,0.1,0.1c0,0,0,0,0.1,0.1      c0,0,0.1,0.1,0.1,0.1c0,0,0.1-0.1,0.1-0.1l0.1,0c0.1,0,0.2,0,0.2,0.1c0-0.1,0.1-0.1,0.2-0.1l0.1,0c0.1,0,0.2,0,0.2,0.1      c0-0.1,0.1-0.1,0.2-0.1l0.1,0c0.1,0,0.2,0,0.2,0.1c0-0.1,0.1-0.1,0.2-0.1l0.1,0c0.1,0,0.2,0,0.2,0.1c0-0.1,0.1-0.1,0.2-0.1      l0.1,0c0,0,0,0,0,0c0,0,0,0,0.1,0c0.1,0,0.2,0.1,0.2,0.2c0.1,0,0.2,0,0.3,0.1c0,0,0.1,0.1,0.1,0.1c0,0.1,0,0.2,0,0.2      c0.1,0,0.1,0.1,0.2,0.2c0,0.1,0,0.1,0,0.2c0,0.1-0.1,0.2-0.2,0.2c0.1,0.1,0.1,0.2,0,0.3c0,0-0.1,0.1-0.1,0.1      c-0.1,0.1-0.2,0.1-0.3,0C548.1,164.2,548,164.3,547.8,164.3C547.8,164.3,547.8,164.3,547.8,164.3L547.8,164.3z"></path>
			</g>
			<g>
				<path d="M543.6,163.3L543.6,163.3c-0.1,0-0.2,0-0.2-0.1c0,0.1-0.1,0.1-0.2,0.1l-0.1,0c-0.1,0-0.2,0-0.2-0.1      c0,0.1-0.1,0.1-0.2,0.1l-0.1,0c-0.1,0-0.2-0.1-0.2-0.2c0-0.1,0.1-0.2,0.2-0.2l0.1,0c0.1,0,0.2,0,0.2,0.1c0-0.1,0.1-0.1,0.2-0.1      l0.1,0c0.1,0,0.2,0,0.2,0.1c0-0.1,0.1-0.1,0.2-0.1l0,0c0.1,0,0.2,0.1,0.2,0.2C543.8,163.2,543.7,163.3,543.6,163.3z"></path>
			</g>
			<g>
				<path d="M540.6,165.1L540.6,165.1L540.6,165.1c-0.1,0-0.2,0-0.3-0.1c0,0.1-0.1,0.1-0.2,0.1c0,0,0,0,0,0l-0.1,0      c-0.1,0-0.2,0-0.2-0.1c0,0.1-0.1,0.1-0.2,0.1l-0.1,0c-0.1,0-0.2,0-0.2-0.1c0,0.1-0.1,0.1-0.2,0.1l0,0l-0.1,0      c-0.1,0-0.2,0-0.2-0.1c0,0.1-0.1,0.1-0.2,0.1l-0.1,0c-0.1,0-0.2,0-0.2-0.1c0,0.1-0.1,0.1-0.2,0.1c-0.1,0-0.1,0-0.2,0      c-0.1,0-0.2-0.1-0.2-0.2c-0.1,0-0.2,0-0.3-0.1c0-0.1-0.1-0.1-0.1-0.2c0-0.1,0-0.2,0.1-0.2c-0.1,0-0.1-0.1-0.1-0.2l0-0.1      c0-0.1,0-0.2,0.1-0.2c-0.1,0-0.1-0.1-0.1-0.2l0-0.1c0-0.1,0-0.2,0.1-0.2c-0.1,0-0.1-0.1-0.1-0.2l0-0.1c0-0.1,0-0.2,0.1-0.2      c-0.1,0-0.1-0.1-0.1-0.2c0-0.1,0-0.1,0-0.2c0-0.1,0.1-0.2,0.2-0.2c0-0.1,0-0.2,0.1-0.3c0,0,0.1-0.1,0.1-0.1c0.1,0,0.2,0,0.3,0      c0-0.1,0.1-0.1,0.2-0.2l0.1,0c0.1,0,0.2,0,0.2,0.1c0-0.1,0.1-0.1,0.2-0.1l0.1,0c0.1,0,0.2,0,0.2,0.1c0-0.1,0.1-0.1,0.2-0.1      l0.1,0c0.1,0,0.2,0,0.2,0.1c0-0.1,0.1-0.1,0.2-0.1l0.1,0c0.1,0,0.2,0,0.2,0.1c0-0.1,0.1-0.1,0.2-0.1l0.1,0c0.1,0,0.2,0,0.2,0.1      c0-0.1,0.1-0.1,0.2-0.1l0.1,0c0.1,0,0.2,0.1,0.2,0.2c0,0.1-0.1,0.2-0.2,0.2l-0.1,0c-0.1,0-0.2,0-0.2-0.1c0,0.1-0.1,0.1-0.2,0.1      l-0.1,0c-0.1,0-0.2,0-0.2-0.1c0,0.1-0.1,0.1-0.2,0.1l-0.1,0c-0.1,0-0.2,0-0.2-0.1c0,0.1-0.1,0.1-0.2,0.1l-0.1,0      c-0.1,0-0.2,0-0.2-0.1c0,0.1-0.1,0.1-0.2,0.1l-0.1,0c-0.1,0-0.2,0-0.2-0.1c0,0.1-0.1,0.1-0.2,0.1l-0.1,0c-0.1,0-0.1,0-0.2-0.1      c0,0.1-0.1,0.1-0.1,0.1c0,0-0.1,0-0.1,0c0,0-0.1,0-0.1,0c0,0,0,0.1,0,0.1c0,0,0,0.1,0,0.1c0,0.1,0,0.1-0.1,0.2      c0.1,0,0.1,0.1,0.1,0.2l0,0.1c0,0.1,0,0.2-0.1,0.2c0.1,0,0.1,0.1,0.1,0.2l0,0.1c0,0.1,0,0.2-0.1,0.2c0.1,0,0.1,0.1,0.1,0.2      l0,0.1c0,0.1,0,0.2-0.1,0.2c0.1,0,0.1,0.1,0.1,0.1c0,0,0,0,0,0.1c0,0,0,0.1,0,0.1c0,0,0.1,0,0.1,0c0,0,0.1,0,0.1,0      c0.1,0,0.1,0,0.2,0.1c0-0.1,0.1-0.1,0.2-0.1l0,0l0.1,0c0.1,0,0.2,0,0.2,0.1c0-0.1,0.1-0.1,0.2-0.1h0l0.1,0c0.1,0,0.2,0,0.2,0.1      c0-0.1,0.1-0.1,0.2-0.1l0.1,0c0.1,0,0.2,0,0.2,0.1c0-0.1,0.1-0.1,0.2-0.1l0.1,0c0.1,0,0.2,0,0.2,0.1c0-0.1,0.1-0.1,0.2-0.1h0      c0,0,0,0,0,0v0c0,0,0,0,0,0c0.1,0,0.1,0,0.2,0c0-0.1,0-0.1,0.1-0.1c0,0,0,0,0-0.1c0,0,0.1-0.1,0.1-0.1c0,0-0.1-0.1-0.1-0.1      l0-0.1c0-0.1,0-0.2,0.1-0.2c-0.1,0-0.1-0.1-0.1-0.2l0-0.1l-0.1,0c-0.1,0-0.2,0-0.2-0.1c0,0.1-0.1,0.1-0.2,0.1l-0.1,0      c-0.1,0-0.2,0-0.2-0.1c0,0.1-0.1,0.1-0.2,0.1l-0.1,0c-0.1,0-0.2-0.1-0.2-0.2c0-0.1,0.1-0.2,0.2-0.2l0.1,0c0.1,0,0.2,0,0.2,0.1      c0-0.1,0.1-0.1,0.2-0.1l0.1,0c0.1,0,0.2,0,0.2,0.1c0-0.1,0.1-0.1,0.2-0.1l0.1,0c0.1,0,0.2,0.1,0.2,0.2c0.1,0,0.2,0.1,0.2,0.2      l0,0.1c0,0.1,0,0.2-0.1,0.2c0.1,0,0.1,0.1,0.1,0.2l0,0.1c0,0.1,0,0.2-0.1,0.2c0.1,0.1,0.1,0.2,0,0.3c0,0.1-0.1,0.1-0.1,0.1      c-0.1,0.1-0.2,0.1-0.3,0C540.9,165,540.8,165,540.6,165.1C540.6,165.1,540.6,165.1,540.6,165.1      C540.6,165.1,540.6,165.1,540.6,165.1z"></path>
			</g>
		</g>
		<path fill="none" stroke="#000000" stroke-width="0.4945" stroke-miterlimit="10" d="M353.7,503.7c0.6-0.9,4.9-8.1,5.3-9.1"></path>
		<path fill="none" stroke="#000000" stroke-width="0.4945" stroke-miterlimit="10" d="M355.1,495.5c0.3-0.5,0.7-1.1,1-1.7"></path>
		<path fill="none" stroke="#000000" stroke-width="0.4945" stroke-miterlimit="10" d="M359.8,499.6c0.6-0.9,2.1-3.4,2.5-4.4"></path>
		<path fill="none" stroke="#000000" stroke-width="0.3709" stroke-miterlimit="10" stroke-dasharray="1.9781,1.4836" d="    M358.5,498.6c0.5-0.8,1.6-2.5,2.2-3.7"></path>
		<path fill="none" stroke="#000000" stroke-width="0.3709" stroke-miterlimit="10" stroke-dasharray="1.9781,1.4836" d="    M356.3,496.5c0.3-0.4,0.7-1.1,1.1-1.8"></path>
		<g>
			<path d="M360.3,499l-0.2,0.3l-1.7-0.4l0.2-0.3l1.2,0.4l0,0L359,498l0.2-0.3L360.3,499z"></path>
			<path d="M361,497.9l-0.2,0.3l-1.7-0.4l0.2-0.3l1.2,0.4l0,0l-0.9-0.9l0.2-0.3L361,497.9z"></path>
			<path d="M361.7,496.8l-0.2,0.3l-1.7-0.4l0.2-0.3l1.2,0.4l0,0l-0.9-0.9l0.2-0.3L361.7,496.8z"></path>
			<path d="M362.4,495.7l-0.2,0.3l-1.7-0.4l0.2-0.3l1.2,0.4l0,0l-0.9-0.9l0.2-0.3L362.4,495.7z"></path>
		</g>
		<g>
			<path d="M356.8,496l-0.2,0.3l-1.7-0.4l0.2-0.3l1.2,0.4l0,0l-0.9-0.9l0.2-0.3L356.8,496z"></path>
			<path d="M357.5,494.9l-0.2,0.3l-1.7-0.4l0.2-0.3l1.2,0.4l0,0l-0.9-0.9l0.2-0.3L357.5,494.9z"></path>
		</g>
		<path fill="none" stroke="#000000" stroke-width="0.2" stroke-miterlimit="10" d="M360.9,472.7c11.4-3.2,27.4-0.1,34.2-12.1"></path>
		<g>
			<g>
				<path fill="#FFFFFF" stroke="#000000" stroke-width="0.4508" stroke-miterlimit="10" d="M502,116.5c4.4-0.8,27.8-1.8,45-3.3      c0,0-0.1-26.2-2.5-30c0,0-29.3,0.3-44.7,1.9C499.8,85.2,501.5,99.3,502,116.5z"></path>
				<path fill="none" stroke="#000000" stroke-width="0.3381" stroke-miterlimit="10" stroke-dasharray="1.8034,1.3525" d="      M498.8,114.4c0.5,0,45.9-4,51.7-3.3"></path>
				<path fill="none" stroke="#000000" stroke-width="0.3381" stroke-miterlimit="10" stroke-dasharray="1.8034,1.3525" d="      M497.6,87.1c0,0,43.6-2.6,50.1-2.6"></path>
			</g>
			<path d="M505.5,93.2c0.9-1.7,2.6-3,4.7-3.1l8.8-0.6c0.6,0,1.2,0.4,1.2,1l0.1,1.7L505.5,93.2z M510.4,95.5c-0.5,0-0.9,0.2-1.1,0.4     c-0.2,0.2-0.3,0.7-0.3,1.2c0,0.1,0,0.3,0.1,0.6c0,0.2,0.1,0.6,0.1,1l-0.9,0.1c-0.4-1.2-0.9-2.1-1.4-2.8c-0.5-0.6-1-1.1-1.7-1.6     c-0.1,0.5-0.1,1-0.1,1.6l0.1,1.6c0.2,3.1,2.9,5.4,6,5.2l8.8-0.6c0.6,0,1.1-0.6,1-1.1l-0.4-5.1c0-0.6-0.6-1.1-1.2-1L510.4,95.5z      M519.2,104.8l-0.9,0.1l0.2,2.9l-1.1,0.1l-0.2-2.9l-0.9,0.1l0.3,3.7l3.7-0.3c0.6,0,1.1-0.6,1.1-1.2l-0.2-2.6l-0.9,0.1l0.2,2.6     c0,0.2-0.1,0.3-0.3,0.3l-0.8,0.1L519.2,104.8z M515.7,106.2c0,0,0.1,1.1,0.2,2.6l-0.9,0.1l-0.1-1.2l-2.6,0.2l0.1,1.2l-0.9,0.1     c0,0-0.1-2-0.2-2.6c0-0.6,0.4-1.2,1.1-1.2l2-0.1C515.1,105.1,515.6,105.6,515.7,106.2z M514.8,106.3c0-0.2-0.2-0.3-0.3-0.3     l-2,0.1c-0.2,0-0.3,0.1-0.3,0.3c0,0.2,0,0.6,0,0.6l2.6-0.2L514.8,106.3z M510.3,107.9l0.7,1.3l-0.9,0.1l-0.6-1.1l-1.7,0.1     l0.1,1.2l-0.9,0.1l-0.3-3.7l2.9-0.2c0.6,0,1.2,0.4,1.2,1.1c0,0,0,0.2,0,0.3C510.8,107.3,510.6,107.7,510.3,107.9z M509.9,106.7     c0-0.2-0.2-0.3-0.3-0.3l-2,0.1l0.1,0.8l2-0.1c0.1,0,0.3-0.1,0.3-0.3L509.9,106.7z"></path>
			<g>
				<path d="M541.2,100.1c-0.5,0-0.8-0.3-0.9-0.7c0-0.4,0.2-0.8,0.7-0.9l0.2,0l0,0.5l-0.2,0c-0.2,0-0.3,0.2-0.3,0.3      c0,0.2,0.1,0.3,0.4,0.3l1.7-0.1c0.2,0,0.3-0.2,0.3-0.3c0-0.2-0.1-0.3-0.4-0.3l-0.6,0.1l0,0.4l-0.4,0l-0.1-0.8l1-0.1      c0.5,0,0.8,0.3,0.9,0.7c0,0.4-0.2,0.8-0.7,0.9L541.2,100.1z"></path>
				<path d="M542.1,97.8l-0.1-1.4l0.5,0l0.1,1.4L542.1,97.8z"></path>
				<path d="M540.9,94.3l0,0.5l-0.1,0c-0.2,0-0.4,0.1-0.4,0.4c0,0.3,0.2,0.3,0.5,0.3c0.3,0,0.3-0.1,0.4-0.3l0.1-0.4      c0.1-0.4,0.4-0.5,0.9-0.6c0.6,0,1,0.1,1,0.7c0,0.5-0.3,0.8-0.7,0.9l-0.2,0l0-0.5l0.1,0c0.2,0,0.3-0.1,0.3-0.4      c0-0.3-0.2-0.3-0.5-0.3c-0.4,0-0.4,0.1-0.5,0.3l-0.1,0.3c-0.1,0.4-0.4,0.5-0.8,0.6c-0.5,0-0.9-0.2-1-0.7c0-0.5,0.3-0.8,0.7-0.8      L540.9,94.3z"></path>
				<path d="M540.4,93.4l0,0.5l-0.4,0l-0.1-1.6l0.4,0l0,0.5l2.8-0.2l0,0.5L540.4,93.4z"></path>
				<path d="M539.8,91.6l0-0.4l3.2-1l0,0.5l-0.7,0.2l0.1,0.6l0.7,0.1l0,0.5L539.8,91.6z M540.7,91.4L540.7,91.4l1.2,0.1l0-0.5      L540.7,91.4z"></path>
				<path d="M539.6,90l-0.1-0.8c0-0.6,0.3-0.9,0.9-0.9c0.4,0,0.7,0.1,0.9,0.3l1.5-0.6l0,0.5l-1.4,0.6l0,0.3l1.4-0.1l0,0.5L539.6,90z       M541.1,89.4l0-0.3c0-0.3-0.2-0.4-0.5-0.3c-0.3,0-0.5,0.1-0.5,0.4l0,0.2L541.1,89.4z"></path>
			</g>
		</g>
		<path fill="none" stroke="#000000" stroke-width="0.2" stroke-miterlimit="10" d="M561.1,520c11-5.3,4.8-10.4-12.7-14.8    c-17.5-4.4,3.9-13.1,12.3-16.8c8.4-3.6,14.8-11.2,14.8-11.2"></path>
		<g>
			<path fill="#FFFFFF" stroke="#000000" stroke-width="0.5" stroke-miterlimit="10" d="M549.2,77.7c1,0.2,2.5-0.6,3.7,0.2     c1,0.7,9.3,11.7,6.4,36.1c-0.1,0.6,0.9,4.5-0.6,4.4c-1.6-0.2-5,0.7-5.1-1.2c-0.1-1.9,0.3-5.4,0.5-8c0.2-2.6,1-6.5-0.7-15.8     c-1.9-10.4-5-12.5-5.2-14.1C548,77.6,549.2,77.7,549.2,77.7z"></path>
			
				<path fill="none" stroke="#000000" stroke-width="0.3" stroke-linecap="round" stroke-linejoin="round" stroke-miterlimit="10" d="     M559.1,115.6l-0.2,1.1l-0.1-1.6l-0.4,1.4l-0.3-1.6l-0.4,1.4l-0.2-1.5l-0.4,1.6l-0.4-1.4c0,0-0.4,1.7-0.4,1.5     c0-0.2-0.1-1.5-0.1-1.5l-0.4,1.6l0-1.5l-0.4,1.8l-0.1-1.7c0,0-0.4,1.8-0.4,1.6c0-0.2,0-1.5,0-1.5"></path>
			<path fill="none" stroke="#000000" stroke-width="0.3" stroke-miterlimit="10" stroke-dasharray="1.8895,1.4172" d="M549.7,78.6     c0,0,5.2,9.2,5.9,16.5c0.7,7.4,0.1,19,0.2,20.9"></path>
			<path fill="none" stroke="#000000" stroke-width="0.3" stroke-miterlimit="10" stroke-dasharray="1.8895,1.4172" d="M552.4,78.5     c0,0,5.2,9.2,5.9,16.5c0.7,7.4,0.1,19,0.2,20.9"></path>
			
				<path fill="none" stroke="#000000" stroke-width="0.3" stroke-linecap="round" stroke-linejoin="round" stroke-miterlimit="10" d="     M549.4,78.9l0.5,1l-0.4-1.5l0.9,1.3l-0.3-1.4l1,1.2l-0.5-1.3l1,1.3l-0.4-1.3c0,0,0.8,1.5,0.7,1.4c-0.1-0.2-0.4-1.4-0.4-1.4     l0.8,1.4l-0.4-1.4l0.9,1.7l-0.4-1.5c0,0,0.9,1.6,0.8,1.5c-0.1-0.1-0.4-1.4-0.4-1.4"></path>
		</g>
	</g>
</g>
<g id="deconstructMiddle">
	<g>
	</g>
</g>
<g id="denimFront">
	<g id="WOMEN_x5F_MIDGE_3_">
	</g>
	<g id="WOMEN_x5F_ARC">
	</g>
</g>
<g id="deconstructFront">
	<g>
		<g data-translate="243.89999999999998" data-delay="0.08" data-duration="1" data-svg-origin="149.38265991210938 168.89999389648438" transform="matrix(1,0,0,1,0,0)" style="transform-origin: 0px 0px;">
			<g data-translate="-50" data-delay="0.5" data-duration="0.5" data-svg-origin="180.6999969482422 215.59918212890625" transform="matrix(1,0,0,1,0,0)" style="transform-origin: 0px 0px;">
				<g>
					<path fill="#FFFFFF" stroke="#000000" stroke-miterlimit="10" d="M202.7,221.3c0,0,1.5,1.9,7.3,3.7c5.8,1.8,19.5,1.1,19.5,1.1       l0.1,0c0.6,2.5,1,4.5,0.9,5.2c-0.1,2.5,0.2,7.4,0.2,7.4s-17.9,13.7-19.4,13.2c-1.5-0.6-4.8-6.8-4.8-6.8       S204.6,235.2,202.7,221.3L202.7,221.3z"></path>
					<path fill="#FFFFFF" stroke="#000000" stroke-miterlimit="10" d="M203.1,221.7c0,0-2.4-2.2,0.8-4.2c3.2-2,3.6-1.9,3.6-1.9       s0.9,8.9,2.9,9.4l-0.4-0.1c-3.7-1.1-5.6-2.3-6.5-3L203.1,221.7z"></path>
				</g>
				<line fill="none" stroke="#000000" stroke-width="0.2" stroke-miterlimit="10" x1="180.7" y1="226.2" x2="229.6" y2="226.2"></line>
				
					<line id="ref_41_" fill="none" stroke="#000000" stroke-width="0.2" stroke-miterlimit="10" x1="180.7" y1="238.9" x2="230.7" y2="238.9"></line>
			</g>
			<g>
				<path fill="#FFFFFF" stroke="#000000" stroke-miterlimit="10" d="M149.5,168.9c0,0,4.5,1.7,9.5,2.2c5.1,0.5,18.2,1.8,18.7,2.6      s-4.2,25.3-3.2,31c1,5.6,6.3,24,6.2,26.5c-0.1,2.5,0.2,7.4,0.2,7.4s-17.9,13.7-19.4,13.2c-1.5-0.6-4.8-6.8-4.8-6.8      S148.3,202.4,149.5,168.9z"></path>
				<path fill="none" stroke="#000000" stroke-width="0.3" stroke-miterlimit="10" stroke-dasharray="1.8983,1.4237" d="      M175.2,173.8c0.5,0.8-4.1,25.1-3.1,30.8c1,5.6,6.2,23.8,6.1,26.3c-0.1,2.5,0.2,7.4,0.2,7.4s-17,12.4-18.5,11.9"></path>
				
					<path fill="none" stroke="#000000" stroke-width="0.4529" stroke-linecap="round" stroke-linejoin="round" stroke-miterlimit="10" d="      M155,213.4l0.3,0.4l-0.3-1.1l0.7,0.6l-0.5-1.2l0.6,0.5l-0.4-1.1l0.7,0.8l-0.4-1.1c0,0,0.7,0.8,0.7,0.7c-0.1-0.1-0.4-1.2-0.4-1.2      l0.7,0.7l-0.5-1.1l0.8,0.9l-0.5-1.3"></path>
				<path fill="none" stroke="#000000" stroke-width="0.3" stroke-miterlimit="10" stroke-dasharray="1.8983,1.4237" d="      M150.6,199.3c3.5,5,5.6,11.5,5.6,11.5"></path>
				<path fill="none" stroke="#000000" stroke-width="0.3" stroke-miterlimit="10" stroke-dasharray="1.8983,1.4237" d="M150.8,203      c3.1,4.8,5,10.7,5,10.7"></path>
				<path fill="none" stroke="#000000" stroke-width="0.3" stroke-miterlimit="10" stroke-dasharray="1.8983,1.4237" d="      M177.7,176.6c-0.5-0.5-2.6-2.3-8.2-2.7c-5.6-0.4-13.1-1.1-15-1.7c-1.3-0.4-3.4-1.4-4.6-2.1"></path>
				<path fill="none" stroke="#000000" stroke-width="0.3" stroke-miterlimit="10" stroke-dasharray="1.8983,1.4237" d="M176.9,180      c0,0-1.9-2.5-6.8-3c-4.9-0.6-11.8-1.2-13.8-1.6c-2-0.4-6.9-1.8-6.8-2.7"></path>
				<path fill="none" stroke="#000000" stroke-width="0.3" stroke-miterlimit="10" stroke-dasharray="1.8983,1.4237" d="      M169.9,173.9c0,0-0.8,33.6-0.3,36.6c0.5,3,6.8,24.2,5.8,25.1c-1,0.9-16.1,11.2-16.1,11.2"></path>
				<path fill="none" stroke="#000000" stroke-width="0.4746" stroke-miterlimit="10" d="M179.7,226.1c0,0-13.7,0.7-19.5-1.1      c-5.8-1.8-7.7-3.7-7.7-3.7"></path>
				<g>
					
						<line fill="none" stroke="#000000" stroke-width="0.629" stroke-linecap="round" stroke-linejoin="round" stroke-miterlimit="10" x1="176" y1="172.1" x2="175.7" y2="174.1"></line>
					
						<line fill="none" stroke="#000000" stroke-width="0.629" stroke-linecap="round" stroke-linejoin="round" stroke-miterlimit="10" x1="175.2" y1="172" x2="174.8" y2="174"></line>
					
						<line fill="none" stroke="#000000" stroke-width="0.629" stroke-linecap="round" stroke-linejoin="round" stroke-miterlimit="10" x1="174.3" y1="171.9" x2="173.9" y2="173.9"></line>
					
						<line fill="none" stroke="#000000" stroke-width="0.629" stroke-linecap="round" stroke-linejoin="round" stroke-miterlimit="10" x1="173.4" y1="171.9" x2="173" y2="173.9"></line>
					
						<line fill="none" stroke="#000000" stroke-width="0.629" stroke-linecap="round" stroke-linejoin="round" stroke-miterlimit="10" x1="172.5" y1="171.8" x2="172.2" y2="173.8"></line>
					
						<line fill="none" stroke="#000000" stroke-width="0.629" stroke-linecap="round" stroke-linejoin="round" stroke-miterlimit="10" x1="171.6" y1="171.7" x2="171.3" y2="173.7"></line>
					
						<line fill="none" stroke="#000000" stroke-width="0.629" stroke-linecap="round" stroke-linejoin="round" stroke-miterlimit="10" x1="170.8" y1="171.6" x2="170.4" y2="173.6"></line>
				</g>
			</g>
			<line fill="none" stroke="#000000" stroke-width="0.2" stroke-miterlimit="10" x1="162.4" y1="251.8" x2="406.3" y2="251.8"></line>
			
				<line id="ref_40_" fill="none" stroke="#000000" stroke-width="0.2" stroke-miterlimit="10" x1="177" y1="173.2" x2="420.9" y2="173.2"></line>
		</g>
		<g data-translate="244.5" data-delay="0.08" data-duration="1" data-svg-origin="226.93557739257812 158" transform="matrix(1,0,0,1,0,0)" style="transform-origin: 0px 0px;">
			<g data-translate="-49" data-delay="0.5" data-duration="0.5" data-svg-origin="295.20001220703125 221.5" transform="matrix(1,0,0,1,0,0)" style="transform-origin: 0px 0px;">
				<g>
					<path fill="#FFFFFF" stroke="#000000" stroke-miterlimit="10" d="M380,221.7c0,0-32.1,7.5-42.8,8c-10.7,0.5-38,0.7-38,0.7       l-0.1,0c2.7,7,4.6,12,4.9,12.7c1,2.6,36.1,18.6,39.6,18.7c3.5,0.1,36.8-22.9,36.8-22.9s-0.4-9.1-0.6-17.3"></path>
				</g>
				<line fill="none" stroke="#000000" stroke-width="0.2" stroke-miterlimit="10" x1="331.2" y1="221.5" x2="379.7" y2="221.5"></line>
				
					<line id="ref_39_" fill="none" stroke="#000000" stroke-width="0.2" stroke-miterlimit="10" x1="295.2" y1="261.9" x2="344.2" y2="261.9"></line>
			</g>
			<g>
				<g>
					<path fill="#FFFFFF" stroke="#000000" stroke-miterlimit="10" d="M324.4,158.7c0,0,6.4,48.4,6.4,57.2c0,8.8,0.7,22.7,0.7,22.7       s-33.3,23-36.8,22.9c-3.5-0.1-38.6-16.1-39.6-18.7c-1-2.8-27.6-71.9-28.1-71.6c-1.8,1,34.6-2.8,49.3-4.8       C291,164.4,324.4,158.7,324.4,158.7z"></path>
					<path fill="none" stroke="#000000" stroke-width="0.3582" stroke-miterlimit="10" stroke-dasharray="1.9106,1.433" d="       M294.7,260c-3.5-0.4-34.8-14.6-37.9-17.7c-1.5-3.9-21.3-55.7-26.8-68.7c9-0.5,34.9-3.3,46.6-4.9c12.6-1.7,38.9-6.1,46.2-7.3       c1.2,9.1,6.1,47.4,6.2,55c0,7.3,0.5,18.3,0.7,21.7C314.3,248.6,297.4,259.4,294.7,260z"></path>
					
						<path fill="none" stroke="#000000" stroke-width="0.4558" stroke-linecap="round" stroke-linejoin="round" stroke-miterlimit="10" d="       M279,216l-0.6,0.4l0.9-1.1l-1.6,0.5l1.2-1.2l-1.4,0.4l1-1.1l-1.7,0.7l1.1-1c0,0-1.8,0.7-1.6,0.6c0.2-0.1,1.1-1.2,1.1-1.2       l-1.7,0.6l1.1-1.1l-1.9,0.8l1.3-1.3"></path>
					<path fill="none" stroke="#000000" stroke-width="0.3582" stroke-miterlimit="10" stroke-dasharray="1.9106,1.433" d="       M329.6,202.5c0,0-13.5-7.4-27.8-4.5c-14.3,2.9-25,15.3-25,15.3"></path>
					<path fill="none" stroke="#000000" stroke-width="0.3582" stroke-miterlimit="10" stroke-dasharray="1.9106,1.433" d="       M330,205.4c0,0-13.5-7.4-27.8-4.5c-14.3,2.9-25,15.3-25,15.3"></path>
					<path fill="none" stroke="#000000" stroke-width="0.3582" stroke-miterlimit="10" stroke-dasharray="1.9106,1.433" d="       M324.4,164.6c0,0-17,3.7-23.8,4.8c-6.8,1-29,3.8-34.8,4.2c-5.8,0.4-34.9,1.8-37.1,2.8"></path>
					<path fill="none" stroke="#000000" stroke-width="0.3582" stroke-miterlimit="10" stroke-dasharray="1.9106,1.433" d="       M316.2,162.6c0,0,3.6,12.8,4.5,16.8c0.9,4,6.6,54.5,4.6,56.1c-2,1.6-31.1,19.8-31.1,19.8s-33.7-13.7-34.1-14.7       c-0.5-1-6.3-20.3-9.7-27.5c-3.4-7.2-9.5-21.9-10.1-25.2c-0.6-3.3-2.5-15.3-2.5-15.3"></path>
					<path fill="none" stroke="#000000" stroke-width="0.5" stroke-miterlimit="10" d="M331.2,221.7c0,0-32.1,7.5-42.8,8       c-10.7,0.5-38,0.7-38,0.7"></path>
				</g>
				<polygon fill="#FFFFFF" stroke="#000000" stroke-width="0.4746" stroke-miterlimit="10" points="302.8,161.7 304,166.8       315.7,164.9 314.9,159.5     "></polygon>
				<g>
					<path d="M306.4,162.3l0.6-0.1c0.5-0.1,0.7,0.2,0.8,0.7c0.1,0.3,0,0.6-0.2,0.7l0.6,1.2l-0.4,0.1l-0.6-1.1l-0.2,0l0.2,1.2       l-0.4,0.1L306.4,162.3z M307,163.4l0.2,0c0.3,0,0.3-0.2,0.2-0.5c0-0.3-0.1-0.4-0.4-0.4l-0.2,0L307,163.4z"></path>
					<path d="M308.7,161.9l0.3-0.1l1.1,2.6l-0.4,0.1l-0.2-0.6l-0.5,0.1l0,0.6l-0.4,0.1L308.7,161.9z M309,162.7L309,162.7l0,1       l0.4-0.1L309,162.7z"></path>
					<path d="M311.8,164.2l-0.4,0.1l-0.6-1.7l0,0l0,1.8l-0.4,0.1l-0.9-2.6l0.4-0.1l0.5,1.7l0,0l0-1.8l0.3-0.1l0.6,1.7l0,0l-0.1-1.8       l0.4-0.1L311.8,164.2z"></path>
				</g>
				<g>
					
						<line fill="none" stroke="#000000" stroke-width="0.6619" stroke-linecap="round" stroke-linejoin="round" stroke-miterlimit="10" x1="227.8" y1="170.2" x2="228.6" y2="172.3"></line>
					
						<line fill="none" stroke="#000000" stroke-width="0.6619" stroke-linecap="round" stroke-linejoin="round" stroke-miterlimit="10" x1="228.7" y1="170.1" x2="229.5" y2="172.2"></line>
					
						<line fill="none" stroke="#000000" stroke-width="0.6619" stroke-linecap="round" stroke-linejoin="round" stroke-miterlimit="10" x1="229.6" y1="170.1" x2="230.4" y2="172.2"></line>
					
						<line fill="none" stroke="#000000" stroke-width="0.6619" stroke-linecap="round" stroke-linejoin="round" stroke-miterlimit="10" x1="230.5" y1="170" x2="231.4" y2="172.1"></line>
					
						<line fill="none" stroke="#000000" stroke-width="0.6619" stroke-linecap="round" stroke-linejoin="round" stroke-miterlimit="10" x1="231.5" y1="169.9" x2="232.3" y2="172.1"></line>
					
						<line fill="none" stroke="#000000" stroke-width="0.6619" stroke-linecap="round" stroke-linejoin="round" stroke-miterlimit="10" x1="232.4" y1="169.9" x2="233.2" y2="172"></line>
					
						<line fill="none" stroke="#000000" stroke-width="0.6619" stroke-linecap="round" stroke-linejoin="round" stroke-miterlimit="10" x1="233.3" y1="169.8" x2="234.1" y2="171.9"></line>
					
						<line fill="none" stroke="#000000" stroke-width="0.6619" stroke-linecap="round" stroke-linejoin="round" stroke-miterlimit="10" x1="234.2" y1="169.8" x2="235" y2="171.9"></line>
					
						<line fill="none" stroke="#000000" stroke-width="0.6619" stroke-linecap="round" stroke-linejoin="round" stroke-miterlimit="10" x1="235.1" y1="169.7" x2="236" y2="171.8"></line>
					
						<line fill="none" stroke="#000000" stroke-width="0.6619" stroke-linecap="round" stroke-linejoin="round" stroke-miterlimit="10" x1="236.1" y1="169.6" x2="236.9" y2="171.7"></line>
				</g>
				<g>
					
						<line fill="none" stroke="#000000" stroke-width="0.6619" stroke-linecap="round" stroke-linejoin="round" stroke-miterlimit="10" x1="315.8" y1="159.1" x2="316.1" y2="161.1"></line>
					
						<line fill="none" stroke="#000000" stroke-width="0.6619" stroke-linecap="round" stroke-linejoin="round" stroke-miterlimit="10" x1="316.6" y1="159" x2="316.9" y2="161"></line>
					
						<line fill="none" stroke="#000000" stroke-width="0.6619" stroke-linecap="round" stroke-linejoin="round" stroke-miterlimit="10" x1="317.4" y1="158.9" x2="317.7" y2="160.8"></line>
					
						<line fill="none" stroke="#000000" stroke-width="0.6619" stroke-linecap="round" stroke-linejoin="round" stroke-miterlimit="10" x1="318.2" y1="158.7" x2="318.6" y2="160.7"></line>
					
						<line fill="none" stroke="#000000" stroke-width="0.6619" stroke-linecap="round" stroke-linejoin="round" stroke-miterlimit="10" x1="319" y1="158.6" x2="319.4" y2="160.6"></line>
					
						<line fill="none" stroke="#000000" stroke-width="0.6619" stroke-linecap="round" stroke-linejoin="round" stroke-miterlimit="10" x1="319.8" y1="158.5" x2="320.2" y2="160.5"></line>
					
						<line fill="none" stroke="#000000" stroke-width="0.6619" stroke-linecap="round" stroke-linejoin="round" stroke-miterlimit="10" x1="320.6" y1="158.4" x2="321" y2="160.3"></line>
					
						<line fill="none" stroke="#000000" stroke-width="0.6619" stroke-linecap="round" stroke-linejoin="round" stroke-miterlimit="10" x1="321.5" y1="158.2" x2="321.8" y2="160.2"></line>
					
						<line fill="none" stroke="#000000" stroke-width="0.6619" stroke-linecap="round" stroke-linejoin="round" stroke-miterlimit="10" x1="322.3" y1="158.1" x2="322.6" y2="160.1"></line>
					
						<line fill="none" stroke="#000000" stroke-width="0.6619" stroke-linecap="round" stroke-linejoin="round" stroke-miterlimit="10" x1="323.1" y1="158" x2="323.4" y2="160"></line>
				</g>
			</g>
			<line fill="none" stroke="#000000" stroke-width="0.2" stroke-miterlimit="10" x1="323" y1="159.1" x2="567.5" y2="159.1"></line>
			
				<line id="ref_38_" fill="none" stroke="#000000" stroke-width="0.2" stroke-miterlimit="10" x1="330" y1="238.9" x2="574.5" y2="238.9"></line>
		</g>
	</g>
	<g>
	</g>
	<g>
	</g>
</g>
<g id="callouts">
	<g id="MEN_x5F_3301_2_">
		<g data-direction="right" data-delay="1" data-duration="0.5" class="callout" data-svg-origin="138.17120361328125 85.54293823242188" transform="matrix(1,0,0,1,0,0)" style="transform-origin: 0px 0px; opacity: 1;">
			<polyline fill="none" stroke="#000000" stroke-width="0.3" stroke-miterlimit="10" points="307.2,161.8 240.2,94.8 209,94.8         "></polyline>
			<g transform="translate(0, 0)">
				<text style="text-anchor: end; transform-origin: 0px 0px; opacity: 1;" y="82.8096" data-svg-origin="138.17120361328125 85.54293823242188" transform="matrix(1,0,0,1,0,0)"><tspan x="202.7285"></tspan><tspan x="202.7285" dy="1.2em">Metal Clip</tspan></text>
			</g>
		</g>
		<g data-direction="left" data-delay="1.1" data-duration="0.5" class="callout" data-svg-origin="528.9000244140625 52.96902847290039" transform="matrix(1,0,0,1,0,0)" style="transform-origin: 0px 0px; opacity: 1;">
			<polyline fill="none" stroke="#000000" stroke-width="0.3" stroke-miterlimit="10" points="528.9,92.4 560.6,60.6 636.9,60.6         "></polyline>
			<g transform="translate(0, 0)">
				<text y="64.6357" data-svg-origin="648.0645141601562 52.96902847290039" transform="matrix(1,0,0,1,0,0)" style="transform-origin: 0px 0px; opacity: 1;"><tspan x="648.0645">Leather</tspan><tspan x="648.0645" dy="1.2em">Waistband Patch</tspan></text>
			</g>
		</g>
		<g data-direction="right" data-delay="0.9" data-duration="0.5" class="callout" data-svg-origin="52.47917175292969 128.76263427734375" transform="matrix(1,0,0,1,0,0)" style="transform-origin: 0px 0px; opacity: 1;">
			<polyline fill="none" stroke="#000000" stroke-width="0.3" stroke-miterlimit="10" points="233,170.8 200,137.8 166.7,137.8         "></polyline>
			<g transform="translate(0, 0)">
				<text style="text-anchor: end; transform-origin: 0px 0px; opacity: 1;" y="126.0293" data-svg-origin="52.47917175292969 128.76263427734375" transform="matrix(1,0,0,1,0,0)"><tspan x="158"></tspan><tspan x="158" dy="1.2em">Hidden Bartacks</tspan></text>
			</g>
		</g>
		<g data-direction="top" data-delay="0.8" data-duration="0.5" class="callout" data-svg-origin="153.24510192871094 274.79998779296875" transform="matrix(1,0,0,1,0,0)" style="transform-origin: 0px 0px; opacity: 1;">
			<g>
				<line fill="none" stroke="#000000" stroke-width="0.3" stroke-miterlimit="10" x1="176.9" y1="357.9" x2="176.9" y2="280.8"></line>
				<line fill="none" stroke="#000000" stroke-width="0.3" stroke-miterlimit="10" x1="176.9" y1="321.2" x2="291.1" y2="321.2"></line>
				<polygon points="179.4,282.5 176.9,274.8 174.3,282.5     "></polygon>
				<line fill="none" stroke="#000000" stroke-width="0.3" stroke-miterlimit="10" x1="291.1" y1="321.2" x2="291.1" y2="280.8"></line>
				<polygon points="293.7,282.5 291.1,274.8 288.5,282.5     "></polygon>
			</g>
			<g transform="translate(0, 0)">
				<text y="376.5029" data-svg-origin="153.24510192871094 364.83624267578125" transform="matrix(1,0,0,1,0,0)" style="transform-origin: 0px 0px; opacity: 1;"><tspan x="153.2451">Reinforced</tspan><tspan x="153.2451" dy="1.2em">Back Pockets</tspan></text>
			</g>
		</g>
	</g>
</g>
</svg>